{"title":"Only Fools and Horses clip (2014) x264 RB58.mp4","uid":9808969,"size":118625464,"categoryP":"video","categoryS":"tv_shows","magnet":"?xt=urn:btih:807f2507bec1aeb5daf4be81c5f9789145806666&amp;dn=Only+Fools+and+Horses+clip+%282014%29+x264+RB58.mp4&amp;tr=udp%3A%2F%2Ftracker.openbittorrent.com%3A80&amp;tr=udp%3A%2F%2Fopen.demonii.com%3A1337&amp;tr=udp%3A%2F%2Ftracker.coppersurfer.tk%3A6969&amp;tr=udp%3A%2F%2Fexodus.desync.com%3A6969","seeders":4,"leechers":0,"uploader":"RedBaron58","files":1,"time":1395498805,"description":"Only Fools and Horses Clip (2014) x264\n &lt;a href=&quot;\nhttp://www.imdb.com/title/tt0081912/&quot; rel=&quot;nofollow&quot; target=&quot;_NEW&quot;&gt;\nhttp://www.imdb.com/title/tt0081912/&lt;/a&gt; \n\n\n\nPlease be patient My upload speed is limited, but I am online most the time and during the night.\nThank you for your kind comments and thumbs ups on my other torrents, your feedback is welcome.\n\n\nAbout the Clip:\nDavid Jason and Nicholas Lyndhurst are reunited in an Only Fools and Horses sketch, more than \n10 years since the last new episode was broadcast, and Peckham has a very special visitor in the \nshape of football legend David Beckham.\nWas broadcast as part of Sport relief 2014 on 21st March 2014.\n\n\n\nI hope you enjoy.\n\n\nTechnical:\n\nGeneral\nComplete name                            : F:Only Fools and Horses clip (2014) x264 RB58.mp4\nFormat                                   : MPEG-4\nFormat profile                           : Base Media\nCodec ID                                 : isom\nFile size                                : 113 MiB\nDuration                                 : 10mn 30s\nOverall bit rate mode                    : Variable\nOverall bit rate                         : 1 506 Kbps\nWriting application                      : Lavf54.63.104\n\nVideo\nID                                       : 1\nFormat                                   : AVC\nFormat/Info                              : Advanced Video Codec\nFormat profile                           : &lt;a class=&quot;__cf_email__&quot; href=&quot;/cdn-cgi/l/email-protection&quot; data-cfemail=&quot;5a173b33341a1669746b&quot;&gt;[email&amp;#160;protected]&lt;/a&gt;&lt;script cf-hash='f9e31' type=&quot;text/javascript&quot;&gt;\n/* &lt;![CDATA[ */!function(){try{var t=&quot;currentScript&quot;in document?document.currentScript:function(){for(var t=document.getElementsByTagName(&quot;script&quot;),e=t.length;e--;)if(t[e].getAttribute(&quot;cf-hash&quot;))return t[e]}();if(t&amp;&amp;t.previousSibling){var e,r,n,i,c=t.previousSibling,a=c.getAttribute(&quot;data-cfemail&quot;);if(a){for(e=&quot;&quot;,r=parseInt(a.substr(0,2),16),n=2;a.length-n;n+=2)i=parseInt(a.substr(n,2),16)^r,e+=String.fromCharCode(i);e=document.createTextNode(e),c.parentNode.replaceChild(e,c)}}}catch(u){}}();/* ]]&gt; */&lt;/script&gt;\nFormat settings, CABAC                   : Yes\nFormat settings, ReFrames                : 2 frames\nCodec ID                                 : avc1\nCodec ID/Info                            : Advanced Video Coding\nDuration                                 : 10mn 30s\nBit rate mode                            : Constant\nBit rate                                 : 1 404 Kbps\nWidth                                    : 832 pixels\nHeight                                   : 468 pixels\nDisplay aspect ratio                     : 16:9\nFrame rate mode                          : Constant\nFrame rate                               : 25.000 fps\nColor space                              : YUV\nChroma subsampling                       : 4:2:0\nBit depth                                : 8 bits\nScan type                                : Progressive\nBits/(Pixel*Frame)                       : 0.144\nStream size                              : 105 MiB (93%)\n\nAudio\nID                                       : 2\nFormat                                   : AAC\nFormat/Info                              : Advanced Audio Codec\nFormat profile                           : LC\nCodec ID                                 : 40\nDuration                                 : 10mn 29s\nBit rate mode                            : Variable\nBit rate                                 : 93.5 Kbps\nMaximum bit rate                         : 128 Kbps\nChannel(s)                               : 2 channels\nChannel positions                        : Front: L R\nSampling rate                            : 48.0 KHz\nCompression mode                         : Lossy\nStream size                              : 7.02 MiB (6%)","torrent":{"xt":"urn:btih:807f2507bec1aeb5daf4be81c5f9789145806666","amp;dn":"Only+Fools+and+Horses+clip+%282014%29+x264+RB58.mp4","amp;tr":["udp%3A%2F%2Ftracker.openbittorrent.com%3A80","udp%3A%2F%2Fopen.demonii.com%3A1337","udp%3A%2F%2Ftracker.coppersurfer.tk%3A6969","udp%3A%2F%2Fexodus.desync.com%3A6969"],"infoHash":"807f2507bec1aeb5daf4be81c5f9789145806666","infoHashBuffer":{"type":"Buffer","data":[128,127,37,7,190,193,174,181,218,244,190,129,197,249,120,145,69,128,102,102]},"announce":[],"urlList":[]}}